<mxfile host="app.diagrams.net" agent="Mozilla/5.0 (Windows NT 10.0; Win64; x64) AppleWebKit/537.36 (KHTML, like Gecko) Chrome/114.0.0.0 YaBrowser/23.7.1.1266 (corp) Yowser/2.5 Safari/537.36" version="24.7.14">
  <diagram name="Страница — 1" id="iWCdSw2Li_uw-Vny-NbS">
    <mxGraphModel dx="1386" dy="801" grid="1" gridSize="10" guides="1" tooltips="1" connect="1" arrows="1" fold="1" page="1" pageScale="1" pageWidth="827" pageHeight="1169" math="0" shadow="0">
      <root>
        <mxCell id="0" />
        <mxCell id="1" parent="0" />
        <mxCell id="QOVAfa2Nv-o42hQcaNNP-4" value="" style="group" parent="1" vertex="1" connectable="0">
          <mxGeometry x="15" y="30" width="80" height="80" as="geometry" />
        </mxCell>
        <mxCell id="QOVAfa2Nv-o42hQcaNNP-2" value="" style="ellipse;whiteSpace=wrap;html=1;aspect=fixed;" parent="QOVAfa2Nv-o42hQcaNNP-4" vertex="1">
          <mxGeometry width="80" height="80" as="geometry" />
        </mxCell>
        <mxCell id="QOVAfa2Nv-o42hQcaNNP-3" value="" style="ellipse;whiteSpace=wrap;html=1;aspect=fixed;fillColor=#000000;" parent="QOVAfa2Nv-o42hQcaNNP-4" vertex="1">
          <mxGeometry x="30" y="10" width="20" height="20" as="geometry" />
        </mxCell>
        <mxCell id="QOVAfa2Nv-o42hQcaNNP-7" value="" style="group" parent="1" vertex="1" connectable="0">
          <mxGeometry x="15" y="120" width="80" height="80" as="geometry" />
        </mxCell>
        <mxCell id="QOVAfa2Nv-o42hQcaNNP-5" value="" style="ellipse;whiteSpace=wrap;html=1;aspect=fixed;" parent="QOVAfa2Nv-o42hQcaNNP-7" vertex="1">
          <mxGeometry width="80" height="80" as="geometry" />
        </mxCell>
        <mxCell id="QOVAfa2Nv-o42hQcaNNP-6" value="" style="triangle;whiteSpace=wrap;html=1;rotation=90;fillColor=#000000;" parent="QOVAfa2Nv-o42hQcaNNP-7" vertex="1">
          <mxGeometry x="30" y="10" width="20" height="20" as="geometry" />
        </mxCell>
        <mxCell id="QOVAfa2Nv-o42hQcaNNP-10" value="" style="group" parent="1" vertex="1" connectable="0">
          <mxGeometry x="30" y="420" width="50" height="20" as="geometry" />
        </mxCell>
        <mxCell id="QOVAfa2Nv-o42hQcaNNP-8" value="" style="ellipse;whiteSpace=wrap;html=1;aspect=fixed;fillColor=#000000;" parent="QOVAfa2Nv-o42hQcaNNP-10" vertex="1">
          <mxGeometry width="20" height="20" as="geometry" />
        </mxCell>
        <mxCell id="QOVAfa2Nv-o42hQcaNNP-9" value="" style="ellipse;whiteSpace=wrap;html=1;aspect=fixed;fillColor=#000000;" parent="QOVAfa2Nv-o42hQcaNNP-10" vertex="1">
          <mxGeometry x="30" width="20" height="20" as="geometry" />
        </mxCell>
        <mxCell id="QOVAfa2Nv-o42hQcaNNP-13" value="" style="group" parent="1" vertex="1" connectable="0">
          <mxGeometry x="15" y="210" width="80" height="80" as="geometry" />
        </mxCell>
        <mxCell id="QOVAfa2Nv-o42hQcaNNP-11" value="" style="ellipse;whiteSpace=wrap;html=1;aspect=fixed;" parent="QOVAfa2Nv-o42hQcaNNP-13" vertex="1">
          <mxGeometry width="80" height="80" as="geometry" />
        </mxCell>
        <mxCell id="QOVAfa2Nv-o42hQcaNNP-12" value="" style="rounded=0;whiteSpace=wrap;html=1;fillColor=#000000;" parent="QOVAfa2Nv-o42hQcaNNP-13" vertex="1">
          <mxGeometry x="30" y="10" width="20" height="20" as="geometry" />
        </mxCell>
        <mxCell id="QOVAfa2Nv-o42hQcaNNP-16" value="" style="group" parent="1" vertex="1" connectable="0">
          <mxGeometry x="15" y="310" width="80" height="80" as="geometry" />
        </mxCell>
        <mxCell id="QOVAfa2Nv-o42hQcaNNP-17" value="" style="ellipse;whiteSpace=wrap;html=1;aspect=fixed;" parent="QOVAfa2Nv-o42hQcaNNP-16" vertex="1">
          <mxGeometry width="80" height="80" as="geometry" />
        </mxCell>
        <mxCell id="QOVAfa2Nv-o42hQcaNNP-18" value="" style="triangle;whiteSpace=wrap;html=1;rotation=-90;fillColor=#000000;" parent="QOVAfa2Nv-o42hQcaNNP-16" vertex="1">
          <mxGeometry x="30" y="10" width="20" height="20" as="geometry" />
        </mxCell>
        <mxCell id="QOVAfa2Nv-o42hQcaNNP-28" value="" style="group" parent="1" vertex="1" connectable="0">
          <mxGeometry x="498" width="100" height="100" as="geometry" />
        </mxCell>
        <mxCell id="QOVAfa2Nv-o42hQcaNNP-29" value="&lt;div&gt;&lt;br&gt;&lt;/div&gt;&lt;div&gt;&lt;br&gt;&lt;/div&gt;Необходимо установить Linux" style="ellipse;whiteSpace=wrap;html=1;aspect=fixed;" parent="QOVAfa2Nv-o42hQcaNNP-28" vertex="1">
          <mxGeometry width="100" height="100" as="geometry" />
        </mxCell>
        <mxCell id="QOVAfa2Nv-o42hQcaNNP-30" value="" style="triangle;whiteSpace=wrap;html=1;rotation=90;fillColor=#000000;" parent="QOVAfa2Nv-o42hQcaNNP-28" vertex="1">
          <mxGeometry x="37.5" y="12.5" width="25" height="25" as="geometry" />
        </mxCell>
        <mxCell id="QOVAfa2Nv-o42hQcaNNP-31" value="" style="group" parent="1" vertex="1" connectable="0">
          <mxGeometry x="664.25" y="202.5" width="83.5" height="95" as="geometry" />
        </mxCell>
        <mxCell id="QOVAfa2Nv-o42hQcaNNP-32" value="&lt;div&gt;&lt;br&gt;&lt;/div&gt;&lt;div&gt;&lt;br&gt;&lt;/div&gt;На сайте" style="ellipse;whiteSpace=wrap;html=1;aspect=fixed;" parent="QOVAfa2Nv-o42hQcaNNP-31" vertex="1">
          <mxGeometry y="4.75" width="75.15000000000002" height="75.15000000000002" as="geometry" />
        </mxCell>
        <mxCell id="QOVAfa2Nv-o42hQcaNNP-33" value="" style="ellipse;whiteSpace=wrap;html=1;aspect=fixed;fillColor=#000000;" parent="QOVAfa2Nv-o42hQcaNNP-31" vertex="1">
          <mxGeometry x="28.18125" y="10.687500000000004" width="18.787500000000005" height="18.787500000000005" as="geometry" />
        </mxCell>
        <mxCell id="QOVAfa2Nv-o42hQcaNNP-106" style="edgeStyle=orthogonalEdgeStyle;rounded=0;orthogonalLoop=1;jettySize=auto;html=1;entryX=0.5;entryY=0;entryDx=0;entryDy=0;" parent="1" source="QOVAfa2Nv-o42hQcaNNP-35" target="QOVAfa2Nv-o42hQcaNNP-46" edge="1">
          <mxGeometry relative="1" as="geometry" />
        </mxCell>
        <mxCell id="QOVAfa2Nv-o42hQcaNNP-35" value="" style="rounded=1;whiteSpace=wrap;html=1;fillColor=#000000;" parent="1" vertex="1">
          <mxGeometry x="529" y="575" width="150" height="10" as="geometry" />
        </mxCell>
        <mxCell id="QOVAfa2Nv-o42hQcaNNP-41" value="" style="group" parent="1" vertex="1" connectable="0">
          <mxGeometry x="656" y="420" width="100" height="100" as="geometry" />
        </mxCell>
        <mxCell id="QOVAfa2Nv-o42hQcaNNP-42" value="&lt;div&gt;&lt;br&gt;&lt;/div&gt;Установка дистрибутива&lt;div&gt;&lt;/div&gt;" style="ellipse;whiteSpace=wrap;html=1;aspect=fixed;" parent="QOVAfa2Nv-o42hQcaNNP-41" vertex="1">
          <mxGeometry width="100" height="100" as="geometry" />
        </mxCell>
        <mxCell id="QOVAfa2Nv-o42hQcaNNP-43" value="" style="rounded=0;whiteSpace=wrap;html=1;fillColor=#000000;" parent="QOVAfa2Nv-o42hQcaNNP-41" vertex="1">
          <mxGeometry x="36.80555555555556" y="12.222222222222223" width="26.388888888888893" height="25" as="geometry" />
        </mxCell>
        <mxCell id="QOVAfa2Nv-o42hQcaNNP-45" value="" style="group" parent="1" vertex="1" connectable="0">
          <mxGeometry x="554" y="610" width="110" height="110" as="geometry" />
        </mxCell>
        <mxCell id="QOVAfa2Nv-o42hQcaNNP-46" value="&lt;div&gt;&lt;br&gt;&lt;/div&gt;Дистрибутив установлен&lt;div&gt;&lt;/div&gt;" style="ellipse;whiteSpace=wrap;html=1;aspect=fixed;" parent="QOVAfa2Nv-o42hQcaNNP-45" vertex="1">
          <mxGeometry width="99.00000000000001" height="99.00000000000001" as="geometry" />
        </mxCell>
        <mxCell id="QOVAfa2Nv-o42hQcaNNP-47" value="" style="ellipse;whiteSpace=wrap;html=1;aspect=fixed;fillColor=#000000;" parent="QOVAfa2Nv-o42hQcaNNP-45" vertex="1">
          <mxGeometry x="37.125" y="12.375000000000002" width="24.750000000000004" height="24.750000000000004" as="geometry" />
        </mxCell>
        <mxCell id="QOVAfa2Nv-o42hQcaNNP-53" value="" style="group" parent="1" vertex="1" connectable="0">
          <mxGeometry x="520" y="1060" width="92" height="85" as="geometry" />
        </mxCell>
        <mxCell id="QOVAfa2Nv-o42hQcaNNP-54" value="&lt;div&gt;&lt;br&gt;&lt;/div&gt;Установка на ВМ" style="ellipse;whiteSpace=wrap;html=1;aspect=fixed;" parent="QOVAfa2Nv-o42hQcaNNP-53" vertex="1">
          <mxGeometry width="85" height="85" as="geometry" />
        </mxCell>
        <mxCell id="QOVAfa2Nv-o42hQcaNNP-55" value="" style="rounded=0;whiteSpace=wrap;html=1;fillColor=#000000;" parent="QOVAfa2Nv-o42hQcaNNP-53" vertex="1">
          <mxGeometry x="36.06818181818181" y="8.5" width="19.863636363636367" height="17.386363636363637" as="geometry" />
        </mxCell>
        <mxCell id="QOVAfa2Nv-o42hQcaNNP-76" value="" style="group" parent="1" vertex="1" connectable="0">
          <mxGeometry x="360" y="1060" width="95" height="100" as="geometry" />
        </mxCell>
        <mxCell id="QOVAfa2Nv-o42hQcaNNP-77" value="&lt;div&gt;&lt;br&gt;&lt;/div&gt;Первичная настройка системы" style="ellipse;whiteSpace=wrap;html=1;aspect=fixed;" parent="QOVAfa2Nv-o42hQcaNNP-76" vertex="1">
          <mxGeometry width="94.99999999999999" height="94.99999999999999" as="geometry" />
        </mxCell>
        <mxCell id="QOVAfa2Nv-o42hQcaNNP-78" value="" style="rounded=0;whiteSpace=wrap;html=1;fillColor=#000000;" parent="QOVAfa2Nv-o42hQcaNNP-76" vertex="1">
          <mxGeometry x="37.24431818181817" y="10" width="20.511363636363637" height="20.454545454545453" as="geometry" />
        </mxCell>
        <mxCell id="QOVAfa2Nv-o42hQcaNNP-79" value="" style="group" parent="1" vertex="1" connectable="0">
          <mxGeometry x="185" y="1070" width="105" height="90" as="geometry" />
        </mxCell>
        <mxCell id="QOVAfa2Nv-o42hQcaNNP-80" value="&lt;div&gt;&lt;br&gt;&lt;/div&gt;Система&amp;nbsp; настроена&lt;div&gt;&lt;/div&gt;" style="ellipse;whiteSpace=wrap;html=1;aspect=fixed;" parent="QOVAfa2Nv-o42hQcaNNP-79" vertex="1">
          <mxGeometry width="90" height="90" as="geometry" />
        </mxCell>
        <mxCell id="QOVAfa2Nv-o42hQcaNNP-81" value="" style="ellipse;whiteSpace=wrap;html=1;aspect=fixed;fillColor=#000000;" parent="QOVAfa2Nv-o42hQcaNNP-79" vertex="1">
          <mxGeometry x="37.55365384615385" y="10.125000000000002" width="20.250000000000004" height="20.250000000000004" as="geometry" />
        </mxCell>
        <mxCell id="QOVAfa2Nv-o42hQcaNNP-82" value="" style="group" parent="1" vertex="1" connectable="0">
          <mxGeometry x="29" y="1060" width="101" height="100" as="geometry" />
        </mxCell>
        <mxCell id="QOVAfa2Nv-o42hQcaNNP-83" value="&lt;br&gt;&lt;div&gt;Система готова к работе&lt;/div&gt;" style="ellipse;whiteSpace=wrap;html=1;aspect=fixed;" parent="QOVAfa2Nv-o42hQcaNNP-82" vertex="1">
          <mxGeometry width="93.23076923076923" height="93.23076923076923" as="geometry" />
        </mxCell>
        <mxCell id="QOVAfa2Nv-o42hQcaNNP-84" value="" style="triangle;whiteSpace=wrap;html=1;rotation=-90;fillColor=#000000;" parent="QOVAfa2Nv-o42hQcaNNP-82" vertex="1">
          <mxGeometry x="33.99038461538461" y="12.5" width="25.25" height="25" as="geometry" />
        </mxCell>
        <mxCell id="QOVAfa2Nv-o42hQcaNNP-103" style="edgeStyle=orthogonalEdgeStyle;rounded=0;orthogonalLoop=1;jettySize=auto;html=1;entryX=0.5;entryY=0;entryDx=0;entryDy=0;" parent="1" source="QOVAfa2Nv-o42hQcaNNP-42" target="QOVAfa2Nv-o42hQcaNNP-35" edge="1">
          <mxGeometry relative="1" as="geometry" />
        </mxCell>
        <mxCell id="QOVAfa2Nv-o42hQcaNNP-122" style="edgeStyle=orthogonalEdgeStyle;rounded=0;orthogonalLoop=1;jettySize=auto;html=1;entryX=1;entryY=0.5;entryDx=0;entryDy=0;" parent="1" source="QOVAfa2Nv-o42hQcaNNP-77" target="QOVAfa2Nv-o42hQcaNNP-80" edge="1">
          <mxGeometry relative="1" as="geometry" />
        </mxCell>
        <mxCell id="QOVAfa2Nv-o42hQcaNNP-123" style="edgeStyle=orthogonalEdgeStyle;rounded=0;orthogonalLoop=1;jettySize=auto;html=1;entryX=1;entryY=0.5;entryDx=0;entryDy=0;" parent="1" source="QOVAfa2Nv-o42hQcaNNP-80" target="QOVAfa2Nv-o42hQcaNNP-83" edge="1">
          <mxGeometry relative="1" as="geometry" />
        </mxCell>
        <mxCell id="QOVAfa2Nv-o42hQcaNNP-124" value="Устойчивое состояние" style="text;html=1;align=center;verticalAlign=middle;whiteSpace=wrap;rounded=0;" parent="1" vertex="1">
          <mxGeometry x="108" y="55" width="141" height="30" as="geometry" />
        </mxCell>
        <mxCell id="QOVAfa2Nv-o42hQcaNNP-125" value="Начало процесса" style="text;html=1;align=center;verticalAlign=middle;whiteSpace=wrap;rounded=0;" parent="1" vertex="1">
          <mxGeometry x="108" y="145" width="141" height="30" as="geometry" />
        </mxCell>
        <mxCell id="QOVAfa2Nv-o42hQcaNNP-126" value="Метод / Процесс / Действие" style="text;html=1;align=center;verticalAlign=middle;whiteSpace=wrap;rounded=0;" parent="1" vertex="1">
          <mxGeometry x="108" y="235" width="141" height="30" as="geometry" />
        </mxCell>
        <mxCell id="QOVAfa2Nv-o42hQcaNNP-127" value="Конец процесса" style="text;html=1;align=center;verticalAlign=middle;whiteSpace=wrap;rounded=0;" parent="1" vertex="1">
          <mxGeometry x="108" y="335" width="141" height="30" as="geometry" />
        </mxCell>
        <mxCell id="QOVAfa2Nv-o42hQcaNNP-128" value="Изменённое состояние" style="text;html=1;align=center;verticalAlign=middle;whiteSpace=wrap;rounded=0;" parent="1" vertex="1">
          <mxGeometry x="119" y="415" width="141" height="30" as="geometry" />
        </mxCell>
        <mxCell id="QOVAfa2Nv-o42hQcaNNP-129" value="" style="group" parent="1" vertex="1" connectable="0">
          <mxGeometry x="20" y="460" width="80" height="80" as="geometry" />
        </mxCell>
        <mxCell id="QOVAfa2Nv-o42hQcaNNP-130" value="" style="ellipse;whiteSpace=wrap;html=1;aspect=fixed;" parent="QOVAfa2Nv-o42hQcaNNP-129" vertex="1">
          <mxGeometry width="80" height="80" as="geometry" />
        </mxCell>
        <mxCell id="QOVAfa2Nv-o42hQcaNNP-132" value="Событие" style="text;html=1;align=center;verticalAlign=middle;whiteSpace=wrap;rounded=0;" parent="1" vertex="1">
          <mxGeometry x="119" y="485" width="141" height="30" as="geometry" />
        </mxCell>
        <mxCell id="QOVAfa2Nv-o42hQcaNNP-133" value="" style="group" parent="1" vertex="1" connectable="0">
          <mxGeometry x="13" y="1204" width="80" height="80" as="geometry" />
        </mxCell>
        <mxCell id="QOVAfa2Nv-o42hQcaNNP-134" value="" style="ellipse;whiteSpace=wrap;html=1;aspect=fixed;" parent="QOVAfa2Nv-o42hQcaNNP-133" vertex="1">
          <mxGeometry width="80" height="80" as="geometry" />
        </mxCell>
        <mxCell id="QOVAfa2Nv-o42hQcaNNP-135" value="" style="ellipse;whiteSpace=wrap;html=1;aspect=fixed;fillColor=#000000;" parent="QOVAfa2Nv-o42hQcaNNP-133" vertex="1">
          <mxGeometry x="30" y="10" width="20" height="20" as="geometry" />
        </mxCell>
        <mxCell id="QOVAfa2Nv-o42hQcaNNP-136" value="" style="group" parent="1" vertex="1" connectable="0">
          <mxGeometry x="13" y="1294" width="80" height="80" as="geometry" />
        </mxCell>
        <mxCell id="QOVAfa2Nv-o42hQcaNNP-137" value="" style="ellipse;whiteSpace=wrap;html=1;aspect=fixed;" parent="QOVAfa2Nv-o42hQcaNNP-136" vertex="1">
          <mxGeometry width="80" height="80" as="geometry" />
        </mxCell>
        <mxCell id="QOVAfa2Nv-o42hQcaNNP-138" value="" style="triangle;whiteSpace=wrap;html=1;rotation=90;fillColor=#000000;" parent="QOVAfa2Nv-o42hQcaNNP-136" vertex="1">
          <mxGeometry x="30" y="10" width="20" height="20" as="geometry" />
        </mxCell>
        <mxCell id="QOVAfa2Nv-o42hQcaNNP-139" value="" style="group" parent="1" vertex="1" connectable="0">
          <mxGeometry x="28" y="1594" width="50" height="20" as="geometry" />
        </mxCell>
        <mxCell id="QOVAfa2Nv-o42hQcaNNP-140" value="" style="ellipse;whiteSpace=wrap;html=1;aspect=fixed;fillColor=#000000;" parent="QOVAfa2Nv-o42hQcaNNP-139" vertex="1">
          <mxGeometry width="20" height="20" as="geometry" />
        </mxCell>
        <mxCell id="QOVAfa2Nv-o42hQcaNNP-141" value="" style="ellipse;whiteSpace=wrap;html=1;aspect=fixed;fillColor=#000000;" parent="QOVAfa2Nv-o42hQcaNNP-139" vertex="1">
          <mxGeometry x="30" width="20" height="20" as="geometry" />
        </mxCell>
        <mxCell id="QOVAfa2Nv-o42hQcaNNP-142" value="" style="group" parent="1" vertex="1" connectable="0">
          <mxGeometry x="13" y="1384" width="80" height="80" as="geometry" />
        </mxCell>
        <mxCell id="QOVAfa2Nv-o42hQcaNNP-143" value="" style="ellipse;whiteSpace=wrap;html=1;aspect=fixed;" parent="QOVAfa2Nv-o42hQcaNNP-142" vertex="1">
          <mxGeometry width="80" height="80" as="geometry" />
        </mxCell>
        <mxCell id="QOVAfa2Nv-o42hQcaNNP-144" value="" style="rounded=0;whiteSpace=wrap;html=1;fillColor=#000000;" parent="QOVAfa2Nv-o42hQcaNNP-142" vertex="1">
          <mxGeometry x="30" y="10" width="20" height="20" as="geometry" />
        </mxCell>
        <mxCell id="QOVAfa2Nv-o42hQcaNNP-145" value="" style="group" parent="1" vertex="1" connectable="0">
          <mxGeometry x="13" y="1484" width="80" height="80" as="geometry" />
        </mxCell>
        <mxCell id="QOVAfa2Nv-o42hQcaNNP-146" value="" style="ellipse;whiteSpace=wrap;html=1;aspect=fixed;" parent="QOVAfa2Nv-o42hQcaNNP-145" vertex="1">
          <mxGeometry width="80" height="80" as="geometry" />
        </mxCell>
        <mxCell id="QOVAfa2Nv-o42hQcaNNP-147" value="" style="triangle;whiteSpace=wrap;html=1;rotation=-90;fillColor=#000000;" parent="QOVAfa2Nv-o42hQcaNNP-145" vertex="1">
          <mxGeometry x="30" y="10" width="20" height="20" as="geometry" />
        </mxCell>
        <mxCell id="g8Dbcb_rT2XGJNLQ8Roy-52" style="edgeStyle=orthogonalEdgeStyle;rounded=0;orthogonalLoop=1;jettySize=auto;html=1;exitX=0.5;exitY=1;exitDx=0;exitDy=0;entryX=0.5;entryY=0;entryDx=0;entryDy=0;" parent="1" source="QOVAfa2Nv-o42hQcaNNP-155" target="QOVAfa2Nv-o42hQcaNNP-152" edge="1">
          <mxGeometry relative="1" as="geometry" />
        </mxCell>
        <mxCell id="QOVAfa2Nv-o42hQcaNNP-155" value="p1" style="ellipse;whiteSpace=wrap;html=1;aspect=fixed;" parent="1" vertex="1">
          <mxGeometry x="710" y="1303" width="46" height="46" as="geometry" />
        </mxCell>
        <mxCell id="QOVAfa2Nv-o42hQcaNNP-156" style="edgeStyle=orthogonalEdgeStyle;rounded=0;orthogonalLoop=1;jettySize=auto;html=1;entryX=0.5;entryY=0;entryDx=0;entryDy=0;" parent="1" source="QOVAfa2Nv-o42hQcaNNP-157" target="QOVAfa2Nv-o42hQcaNNP-165" edge="1">
          <mxGeometry relative="1" as="geometry" />
        </mxCell>
        <mxCell id="QOVAfa2Nv-o42hQcaNNP-157" value="" style="rounded=1;whiteSpace=wrap;html=1;fillColor=#000000;" parent="1" vertex="1">
          <mxGeometry x="530.5" y="1619" width="150" height="10" as="geometry" />
        </mxCell>
        <mxCell id="g8Dbcb_rT2XGJNLQ8Roy-48" style="edgeStyle=orthogonalEdgeStyle;rounded=0;orthogonalLoop=1;jettySize=auto;html=1;exitX=1;exitY=0.5;exitDx=0;exitDy=0;entryX=0.5;entryY=0;entryDx=0;entryDy=0;" parent="1" source="QOVAfa2Nv-o42hQcaNNP-178" target="QOVAfa2Nv-o42hQcaNNP-157" edge="1">
          <mxGeometry relative="1" as="geometry" />
        </mxCell>
        <mxCell id="QOVAfa2Nv-o42hQcaNNP-178" value="p3" style="ellipse;whiteSpace=wrap;html=1;aspect=fixed;" parent="1" vertex="1">
          <mxGeometry x="436.13" y="1520" width="44" height="44" as="geometry" />
        </mxCell>
        <mxCell id="QOVAfa2Nv-o42hQcaNNP-229" value="Устойчивое состояние" style="text;html=1;align=center;verticalAlign=middle;whiteSpace=wrap;rounded=0;" parent="1" vertex="1">
          <mxGeometry x="106" y="1229" width="141" height="30" as="geometry" />
        </mxCell>
        <mxCell id="QOVAfa2Nv-o42hQcaNNP-230" value="Начало процесса" style="text;html=1;align=center;verticalAlign=middle;whiteSpace=wrap;rounded=0;" parent="1" vertex="1">
          <mxGeometry x="106" y="1319" width="141" height="30" as="geometry" />
        </mxCell>
        <mxCell id="QOVAfa2Nv-o42hQcaNNP-231" value="Метод / Процесс / Действие" style="text;html=1;align=center;verticalAlign=middle;whiteSpace=wrap;rounded=0;" parent="1" vertex="1">
          <mxGeometry x="106" y="1409" width="141" height="30" as="geometry" />
        </mxCell>
        <mxCell id="QOVAfa2Nv-o42hQcaNNP-232" value="Конец процесса" style="text;html=1;align=center;verticalAlign=middle;whiteSpace=wrap;rounded=0;" parent="1" vertex="1">
          <mxGeometry x="106" y="1509" width="141" height="30" as="geometry" />
        </mxCell>
        <mxCell id="QOVAfa2Nv-o42hQcaNNP-233" value="Изменённое состояние" style="text;html=1;align=center;verticalAlign=middle;whiteSpace=wrap;rounded=0;" parent="1" vertex="1">
          <mxGeometry x="117" y="1589" width="141" height="30" as="geometry" />
        </mxCell>
        <mxCell id="QOVAfa2Nv-o42hQcaNNP-234" value="" style="group" parent="1" vertex="1" connectable="0">
          <mxGeometry x="18" y="1634" width="80" height="80" as="geometry" />
        </mxCell>
        <mxCell id="QOVAfa2Nv-o42hQcaNNP-235" value="" style="ellipse;whiteSpace=wrap;html=1;aspect=fixed;" parent="QOVAfa2Nv-o42hQcaNNP-234" vertex="1">
          <mxGeometry width="80" height="80" as="geometry" />
        </mxCell>
        <mxCell id="QOVAfa2Nv-o42hQcaNNP-236" value="Событие" style="text;html=1;align=center;verticalAlign=middle;whiteSpace=wrap;rounded=0;" parent="1" vertex="1">
          <mxGeometry x="117" y="1659" width="141" height="30" as="geometry" />
        </mxCell>
        <mxCell id="g8Dbcb_rT2XGJNLQ8Roy-53" style="edgeStyle=orthogonalEdgeStyle;rounded=0;orthogonalLoop=1;jettySize=auto;html=1;entryX=0.5;entryY=0;entryDx=0;entryDy=0;" parent="1" source="QOVAfa2Nv-o42hQcaNNP-149" target="QOVAfa2Nv-o42hQcaNNP-155" edge="1">
          <mxGeometry relative="1" as="geometry" />
        </mxCell>
        <mxCell id="g8Dbcb_rT2XGJNLQ8Roy-54" style="edgeStyle=orthogonalEdgeStyle;rounded=0;orthogonalLoop=1;jettySize=auto;html=1;exitX=0;exitY=0.5;exitDx=0;exitDy=0;entryX=0.5;entryY=0;entryDx=0;entryDy=0;" parent="1" source="QOVAfa2Nv-o42hQcaNNP-149" target="QOVAfa2Nv-o42hQcaNNP-210" edge="1">
          <mxGeometry relative="1" as="geometry" />
        </mxCell>
        <mxCell id="QOVAfa2Nv-o42hQcaNNP-149" value="&lt;div&gt;&lt;/div&gt;" style="ellipse;whiteSpace=wrap;html=1;aspect=fixed;" parent="1" vertex="1">
          <mxGeometry x="580" y="1229" width="50" height="50" as="geometry" />
        </mxCell>
        <mxCell id="QOVAfa2Nv-o42hQcaNNP-150" value="" style="triangle;whiteSpace=wrap;html=1;rotation=90;fillColor=#000000;" parent="1" vertex="1">
          <mxGeometry x="594.37" y="1241.75" width="21.25" height="24.5" as="geometry" />
        </mxCell>
        <mxCell id="QOVAfa2Nv-o42hQcaNNP-237" value="" style="group" parent="1" vertex="1" connectable="0">
          <mxGeometry x="710" y="1370" width="63.194444444444436" height="50.5" as="geometry" />
        </mxCell>
        <mxCell id="QOVAfa2Nv-o42hQcaNNP-152" value="&lt;div&gt;&lt;/div&gt;&lt;div&gt;&lt;br&gt;&lt;/div&gt;&lt;div&gt;S1&lt;/div&gt;" style="ellipse;whiteSpace=wrap;html=1;aspect=fixed;" parent="QOVAfa2Nv-o42hQcaNNP-237" vertex="1">
          <mxGeometry width="50.5" height="50.5" as="geometry" />
        </mxCell>
        <mxCell id="QOVAfa2Nv-o42hQcaNNP-153" value="" style="ellipse;whiteSpace=wrap;html=1;aspect=fixed;fillColor=#000000;" parent="QOVAfa2Nv-o42hQcaNNP-237" vertex="1">
          <mxGeometry x="18.67999999999995" y="6.880000000000109" width="14.13" height="14.13" as="geometry" />
        </mxCell>
        <mxCell id="QOVAfa2Nv-o42hQcaNNP-238" value="" style="group" parent="1" vertex="1" connectable="0">
          <mxGeometry x="710" y="1500" width="63.194444444444436" height="56" as="geometry" />
        </mxCell>
        <mxCell id="QOVAfa2Nv-o42hQcaNNP-159" value="&lt;div&gt;&lt;/div&gt;&lt;div&gt;&lt;br&gt;&lt;/div&gt;&lt;div&gt;e1&lt;/div&gt;" style="ellipse;whiteSpace=wrap;html=1;aspect=fixed;" parent="QOVAfa2Nv-o42hQcaNNP-238" vertex="1">
          <mxGeometry width="50" height="50" as="geometry" />
        </mxCell>
        <mxCell id="QOVAfa2Nv-o42hQcaNNP-160" value="" style="rounded=0;whiteSpace=wrap;html=1;fillColor=#000000;" parent="QOVAfa2Nv-o42hQcaNNP-238" vertex="1">
          <mxGeometry x="18.399999999999977" y="6.220000000000027" width="13.19" height="13.78" as="geometry" />
        </mxCell>
        <mxCell id="QOVAfa2Nv-o42hQcaNNP-239" value="" style="group" parent="1" vertex="1" connectable="0">
          <mxGeometry x="427.5" y="1303" width="50.5" height="50.5" as="geometry" />
        </mxCell>
        <mxCell id="QOVAfa2Nv-o42hQcaNNP-210" value="&lt;div&gt;&lt;/div&gt;&lt;div&gt;&lt;br&gt;&lt;/div&gt;&lt;div&gt;e2&lt;/div&gt;" style="ellipse;whiteSpace=wrap;html=1;aspect=fixed;" parent="QOVAfa2Nv-o42hQcaNNP-239" vertex="1">
          <mxGeometry width="50.5" height="50.5" as="geometry" />
        </mxCell>
        <mxCell id="QOVAfa2Nv-o42hQcaNNP-211" value="" style="rounded=0;whiteSpace=wrap;html=1;fillColor=#000000;" parent="QOVAfa2Nv-o42hQcaNNP-239" vertex="1">
          <mxGeometry x="20.5" y="6" width="11.6" height="13.78" as="geometry" />
        </mxCell>
        <mxCell id="QOVAfa2Nv-o42hQcaNNP-248" value="" style="group" parent="1" vertex="1" connectable="0">
          <mxGeometry x="577.32" y="1660" width="56.370000000000005" height="56.36999999999989" as="geometry" />
        </mxCell>
        <mxCell id="QOVAfa2Nv-o42hQcaNNP-165" value="&lt;div&gt;&lt;/div&gt;&lt;div&gt;&lt;/div&gt;&lt;div&gt;&lt;br&gt;&lt;/div&gt;&lt;div&gt;S2&lt;/div&gt;" style="ellipse;whiteSpace=wrap;html=1;aspect=fixed;" parent="QOVAfa2Nv-o42hQcaNNP-248" vertex="1">
          <mxGeometry width="56.37" height="56.37" as="geometry" />
        </mxCell>
        <mxCell id="QOVAfa2Nv-o42hQcaNNP-166" value="" style="ellipse;whiteSpace=wrap;html=1;aspect=fixed;fillColor=#000000;" parent="QOVAfa2Nv-o42hQcaNNP-248" vertex="1">
          <mxGeometry x="20.360000000000014" y="5.369999999999891" width="14.76" height="14.76" as="geometry" />
        </mxCell>
        <mxCell id="QOVAfa2Nv-o42hQcaNNP-251" value="" style="group" parent="1" vertex="1" connectable="0">
          <mxGeometry x="550.13" y="2050" width="61.875" height="60" as="geometry" />
        </mxCell>
        <mxCell id="QOVAfa2Nv-o42hQcaNNP-252" value="&lt;div&gt;&lt;/div&gt;&lt;div&gt;&lt;/div&gt;&lt;div&gt;&lt;br&gt;&lt;/div&gt;&lt;div&gt;e5&lt;/div&gt;" style="ellipse;whiteSpace=wrap;html=1;aspect=fixed;" parent="QOVAfa2Nv-o42hQcaNNP-251" vertex="1">
          <mxGeometry width="50" height="50" as="geometry" />
        </mxCell>
        <mxCell id="QOVAfa2Nv-o42hQcaNNP-253" value="" style="rounded=0;whiteSpace=wrap;html=1;fillColor=#000000;" parent="QOVAfa2Nv-o42hQcaNNP-251" vertex="1">
          <mxGeometry x="18.659999999999968" y="5.1099999999999" width="10.84" height="14.89" as="geometry" />
        </mxCell>
        <mxCell id="g8Dbcb_rT2XGJNLQ8Roy-46" style="edgeStyle=orthogonalEdgeStyle;rounded=0;orthogonalLoop=1;jettySize=auto;html=1;exitX=0.5;exitY=1;exitDx=0;exitDy=0;entryX=0.5;entryY=0;entryDx=0;entryDy=0;" parent="1" source="QOVAfa2Nv-o42hQcaNNP-250" target="QOVAfa2Nv-o42hQcaNNP-260" edge="1">
          <mxGeometry relative="1" as="geometry">
            <Array as="points">
              <mxPoint x="375" y="1950" />
              <mxPoint x="581" y="1950" />
            </Array>
          </mxGeometry>
        </mxCell>
        <mxCell id="QOVAfa2Nv-o42hQcaNNP-250" value="p4" style="ellipse;whiteSpace=wrap;html=1;aspect=fixed;" parent="1" vertex="1">
          <mxGeometry x="350" y="1714" width="50" height="50" as="geometry" />
        </mxCell>
        <mxCell id="QOVAfa2Nv-o42hQcaNNP-254" value="" style="group" parent="1" vertex="1" connectable="0">
          <mxGeometry x="492.12" y="1800" width="61.875" height="60" as="geometry" />
        </mxCell>
        <mxCell id="QOVAfa2Nv-o42hQcaNNP-255" value="&lt;div&gt;&lt;/div&gt;&lt;div&gt;&lt;/div&gt;&lt;div&gt;&lt;br&gt;&lt;/div&gt;&lt;div&gt;e4&lt;/div&gt;" style="ellipse;whiteSpace=wrap;html=1;aspect=fixed;" parent="QOVAfa2Nv-o42hQcaNNP-254" vertex="1">
          <mxGeometry width="50" height="50" as="geometry" />
        </mxCell>
        <mxCell id="QOVAfa2Nv-o42hQcaNNP-256" value="" style="rounded=0;whiteSpace=wrap;html=1;fillColor=#000000;" parent="QOVAfa2Nv-o42hQcaNNP-254" vertex="1">
          <mxGeometry x="18.659999999999968" y="5.1099999999999" width="10.84" height="14.89" as="geometry" />
        </mxCell>
        <mxCell id="g8Dbcb_rT2XGJNLQ8Roy-43" style="edgeStyle=orthogonalEdgeStyle;rounded=0;orthogonalLoop=1;jettySize=auto;html=1;exitX=0.5;exitY=1;exitDx=0;exitDy=0;entryX=0.5;entryY=0;entryDx=0;entryDy=0;" parent="1" source="QOVAfa2Nv-o42hQcaNNP-257" target="QOVAfa2Nv-o42hQcaNNP-255" edge="1">
          <mxGeometry relative="1" as="geometry" />
        </mxCell>
        <mxCell id="QOVAfa2Nv-o42hQcaNNP-257" value="p5" style="ellipse;whiteSpace=wrap;html=1;aspect=fixed;" parent="1" vertex="1">
          <mxGeometry x="492.12" y="1714" width="50" height="50" as="geometry" />
        </mxCell>
        <mxCell id="g8Dbcb_rT2XGJNLQ8Roy-39" style="edgeStyle=orthogonalEdgeStyle;rounded=0;orthogonalLoop=1;jettySize=auto;html=1;exitX=0.5;exitY=1;exitDx=0;exitDy=0;entryX=0.5;entryY=0;entryDx=0;entryDy=0;" parent="1" source="QOVAfa2Nv-o42hQcaNNP-260" target="QOVAfa2Nv-o42hQcaNNP-252" edge="1">
          <mxGeometry relative="1" as="geometry" />
        </mxCell>
        <mxCell id="QOVAfa2Nv-o42hQcaNNP-260" value="" style="rounded=1;whiteSpace=wrap;html=1;fillColor=#000000;" parent="1" vertex="1">
          <mxGeometry x="506.07" y="2000" width="150" height="10" as="geometry" />
        </mxCell>
        <mxCell id="QOVAfa2Nv-o42hQcaNNP-267" value="" style="group" parent="1" vertex="1" connectable="0">
          <mxGeometry x="436.13" y="2050" width="61.875" height="60" as="geometry" />
        </mxCell>
        <mxCell id="QOVAfa2Nv-o42hQcaNNP-289" style="edgeStyle=orthogonalEdgeStyle;rounded=0;orthogonalLoop=1;jettySize=auto;html=1;entryX=1;entryY=0.5;entryDx=0;entryDy=0;" parent="QOVAfa2Nv-o42hQcaNNP-267" source="QOVAfa2Nv-o42hQcaNNP-268" target="QOVAfa2Nv-o42hQcaNNP-271" edge="1">
          <mxGeometry relative="1" as="geometry" />
        </mxCell>
        <mxCell id="QOVAfa2Nv-o42hQcaNNP-268" value="&lt;div&gt;&lt;/div&gt;&lt;div&gt;&lt;/div&gt;&lt;div&gt;&lt;br&gt;&lt;/div&gt;&lt;div&gt;e6&lt;/div&gt;" style="ellipse;whiteSpace=wrap;html=1;aspect=fixed;" parent="QOVAfa2Nv-o42hQcaNNP-267" vertex="1">
          <mxGeometry x="3.75" y="5" width="50" height="50" as="geometry" />
        </mxCell>
        <mxCell id="QOVAfa2Nv-o42hQcaNNP-269" value="" style="rounded=0;whiteSpace=wrap;html=1;fillColor=#000000;" parent="QOVAfa2Nv-o42hQcaNNP-267" vertex="1">
          <mxGeometry x="22.409999999999968" y="10.1099999999999" width="10.84" height="14.89" as="geometry" />
        </mxCell>
        <mxCell id="QOVAfa2Nv-o42hQcaNNP-270" value="" style="group" parent="QOVAfa2Nv-o42hQcaNNP-267" vertex="1" connectable="0">
          <mxGeometry x="-86.25" y="5" width="50" height="50" as="geometry" />
        </mxCell>
        <mxCell id="QOVAfa2Nv-o42hQcaNNP-271" value="&lt;div&gt;&lt;/div&gt;&lt;div&gt;&lt;/div&gt;&lt;div&gt;&lt;br&gt;&lt;/div&gt;&lt;div&gt;S3&lt;/div&gt;" style="ellipse;whiteSpace=wrap;html=1;aspect=fixed;" parent="QOVAfa2Nv-o42hQcaNNP-270" vertex="1">
          <mxGeometry width="50" height="50" as="geometry" />
        </mxCell>
        <mxCell id="QOVAfa2Nv-o42hQcaNNP-272" value="" style="ellipse;whiteSpace=wrap;html=1;aspect=fixed;fillColor=#000000;" parent="QOVAfa2Nv-o42hQcaNNP-270" vertex="1">
          <mxGeometry x="18.059251374844788" y="4.763171899946693" width="13.092070250133048" height="13.092070250133048" as="geometry" />
        </mxCell>
        <mxCell id="QOVAfa2Nv-o42hQcaNNP-276" value="" style="group" parent="QOVAfa2Nv-o42hQcaNNP-267" vertex="1" connectable="0">
          <mxGeometry x="-180" y="5" width="50" height="50" as="geometry" />
        </mxCell>
        <mxCell id="QOVAfa2Nv-o42hQcaNNP-274" value="" style="ellipse;whiteSpace=wrap;html=1;aspect=fixed;" parent="QOVAfa2Nv-o42hQcaNNP-276" vertex="1">
          <mxGeometry width="50" height="50" as="geometry" />
        </mxCell>
        <mxCell id="QOVAfa2Nv-o42hQcaNNP-275" value="" style="triangle;whiteSpace=wrap;html=1;rotation=-90;fillColor=#000000;" parent="QOVAfa2Nv-o42hQcaNNP-276" vertex="1">
          <mxGeometry x="11.870000000000005" y="12.5" width="26.25" height="25" as="geometry" />
        </mxCell>
        <mxCell id="QOVAfa2Nv-o42hQcaNNP-290" style="edgeStyle=orthogonalEdgeStyle;rounded=0;orthogonalLoop=1;jettySize=auto;html=1;entryX=1;entryY=0.5;entryDx=0;entryDy=0;" parent="QOVAfa2Nv-o42hQcaNNP-267" source="QOVAfa2Nv-o42hQcaNNP-271" target="QOVAfa2Nv-o42hQcaNNP-274" edge="1">
          <mxGeometry relative="1" as="geometry" />
        </mxCell>
        <mxCell id="g8Dbcb_rT2XGJNLQ8Roy-1" value="" style="group" parent="1" vertex="1" connectable="0">
          <mxGeometry x="664" y="95" width="80" height="80" as="geometry" />
        </mxCell>
        <mxCell id="g8Dbcb_rT2XGJNLQ8Roy-2" value="Перешли по ссылке на сайт" style="ellipse;whiteSpace=wrap;html=1;aspect=fixed;" parent="g8Dbcb_rT2XGJNLQ8Roy-1" vertex="1">
          <mxGeometry width="80" height="80" as="geometry" />
        </mxCell>
        <mxCell id="g8Dbcb_rT2XGJNLQ8Roy-3" value="" style="group" parent="1" vertex="1" connectable="0">
          <mxGeometry x="664" y="310" width="80" height="80" as="geometry" />
        </mxCell>
        <mxCell id="g8Dbcb_rT2XGJNLQ8Roy-4" value="Выбираем дистрибутив" style="ellipse;whiteSpace=wrap;html=1;aspect=fixed;" parent="g8Dbcb_rT2XGJNLQ8Roy-3" vertex="1">
          <mxGeometry width="80" height="80" as="geometry" />
        </mxCell>
        <mxCell id="g8Dbcb_rT2XGJNLQ8Roy-5" value="" style="group" parent="1" vertex="1" connectable="0">
          <mxGeometry x="320" y="130" width="110" height="110" as="geometry" />
        </mxCell>
        <mxCell id="g8Dbcb_rT2XGJNLQ8Roy-6" value="&lt;div&gt;&lt;br&gt;&lt;/div&gt;&lt;div&gt;Ищем на Жёстком диске дистрибутив&lt;/div&gt;" style="ellipse;whiteSpace=wrap;html=1;aspect=fixed;" parent="g8Dbcb_rT2XGJNLQ8Roy-5" vertex="1">
          <mxGeometry width="110" height="110" as="geometry" />
        </mxCell>
        <mxCell id="g8Dbcb_rT2XGJNLQ8Roy-7" value="" style="rounded=0;whiteSpace=wrap;html=1;fillColor=#000000;" parent="g8Dbcb_rT2XGJNLQ8Roy-5" vertex="1">
          <mxGeometry x="45" y="10" width="20" height="20" as="geometry" />
        </mxCell>
        <mxCell id="g8Dbcb_rT2XGJNLQ8Roy-9" value="" style="group" parent="1" vertex="1" connectable="0">
          <mxGeometry x="336.13" y="460" width="100" height="100" as="geometry" />
        </mxCell>
        <mxCell id="QOVAfa2Nv-o42hQcaNNP-34" value="Есть нужный дистрибутив" style="ellipse;whiteSpace=wrap;html=1;aspect=fixed;" parent="g8Dbcb_rT2XGJNLQ8Roy-9" vertex="1">
          <mxGeometry width="100" height="100" as="geometry" />
        </mxCell>
        <mxCell id="g8Dbcb_rT2XGJNLQ8Roy-11" style="edgeStyle=orthogonalEdgeStyle;rounded=0;orthogonalLoop=1;jettySize=auto;html=1;entryX=0.5;entryY=0;entryDx=0;entryDy=0;" parent="1" source="QOVAfa2Nv-o42hQcaNNP-29" target="g8Dbcb_rT2XGJNLQ8Roy-6" edge="1">
          <mxGeometry relative="1" as="geometry" />
        </mxCell>
        <mxCell id="g8Dbcb_rT2XGJNLQ8Roy-12" style="edgeStyle=orthogonalEdgeStyle;rounded=0;orthogonalLoop=1;jettySize=auto;html=1;exitX=1;exitY=0.5;exitDx=0;exitDy=0;entryX=0.5;entryY=0;entryDx=0;entryDy=0;" parent="1" source="QOVAfa2Nv-o42hQcaNNP-29" target="g8Dbcb_rT2XGJNLQ8Roy-2" edge="1">
          <mxGeometry relative="1" as="geometry" />
        </mxCell>
        <mxCell id="g8Dbcb_rT2XGJNLQ8Roy-13" style="edgeStyle=orthogonalEdgeStyle;rounded=0;orthogonalLoop=1;jettySize=auto;html=1;entryX=0.5;entryY=0;entryDx=0;entryDy=0;" parent="1" source="g8Dbcb_rT2XGJNLQ8Roy-2" target="QOVAfa2Nv-o42hQcaNNP-32" edge="1">
          <mxGeometry relative="1" as="geometry" />
        </mxCell>
        <mxCell id="g8Dbcb_rT2XGJNLQ8Roy-14" style="edgeStyle=orthogonalEdgeStyle;rounded=0;orthogonalLoop=1;jettySize=auto;html=1;exitX=0.5;exitY=1;exitDx=0;exitDy=0;entryX=0.5;entryY=0;entryDx=0;entryDy=0;" parent="1" source="QOVAfa2Nv-o42hQcaNNP-32" target="g8Dbcb_rT2XGJNLQ8Roy-4" edge="1">
          <mxGeometry relative="1" as="geometry" />
        </mxCell>
        <mxCell id="g8Dbcb_rT2XGJNLQ8Roy-15" style="edgeStyle=orthogonalEdgeStyle;rounded=0;orthogonalLoop=1;jettySize=auto;html=1;exitX=0.5;exitY=1;exitDx=0;exitDy=0;entryX=0.5;entryY=0;entryDx=0;entryDy=0;" parent="1" source="g8Dbcb_rT2XGJNLQ8Roy-4" target="QOVAfa2Nv-o42hQcaNNP-42" edge="1">
          <mxGeometry relative="1" as="geometry" />
        </mxCell>
        <mxCell id="g8Dbcb_rT2XGJNLQ8Roy-16" style="edgeStyle=orthogonalEdgeStyle;rounded=0;orthogonalLoop=1;jettySize=auto;html=1;" parent="1" source="g8Dbcb_rT2XGJNLQ8Roy-6" target="QOVAfa2Nv-o42hQcaNNP-34" edge="1">
          <mxGeometry relative="1" as="geometry" />
        </mxCell>
        <mxCell id="g8Dbcb_rT2XGJNLQ8Roy-17" style="edgeStyle=orthogonalEdgeStyle;rounded=0;orthogonalLoop=1;jettySize=auto;html=1;entryX=0.5;entryY=0;entryDx=0;entryDy=0;" parent="1" source="QOVAfa2Nv-o42hQcaNNP-34" target="QOVAfa2Nv-o42hQcaNNP-35" edge="1">
          <mxGeometry relative="1" as="geometry">
            <Array as="points">
              <mxPoint x="604" y="550" />
            </Array>
          </mxGeometry>
        </mxCell>
        <mxCell id="g8Dbcb_rT2XGJNLQ8Roy-33" style="edgeStyle=orthogonalEdgeStyle;rounded=0;orthogonalLoop=1;jettySize=auto;html=1;entryX=0.5;entryY=0;entryDx=0;entryDy=0;" parent="1" source="g8Dbcb_rT2XGJNLQ8Roy-18" target="g8Dbcb_rT2XGJNLQ8Roy-31" edge="1">
          <mxGeometry relative="1" as="geometry">
            <Array as="points">
              <mxPoint x="282" y="1000" />
              <mxPoint x="559" y="1000" />
            </Array>
          </mxGeometry>
        </mxCell>
        <mxCell id="g8Dbcb_rT2XGJNLQ8Roy-18" value="мощностя ВМ выделены но образ не поставлен" style="ellipse;whiteSpace=wrap;html=1;aspect=fixed;" parent="1" vertex="1">
          <mxGeometry x="227" y="700" width="110" height="110" as="geometry" />
        </mxCell>
        <mxCell id="g8Dbcb_rT2XGJNLQ8Roy-28" style="edgeStyle=orthogonalEdgeStyle;rounded=0;orthogonalLoop=1;jettySize=auto;html=1;entryX=0.5;entryY=0;entryDx=0;entryDy=0;" parent="1" source="g8Dbcb_rT2XGJNLQ8Roy-19" target="g8Dbcb_rT2XGJNLQ8Roy-22" edge="1">
          <mxGeometry relative="1" as="geometry" />
        </mxCell>
        <mxCell id="g8Dbcb_rT2XGJNLQ8Roy-19" value="мощностя ВМ не выделены но образ не поставлен" style="ellipse;whiteSpace=wrap;html=1;aspect=fixed;" parent="1" vertex="1">
          <mxGeometry x="420.5" y="700" width="110" height="110" as="geometry" />
        </mxCell>
        <mxCell id="g8Dbcb_rT2XGJNLQ8Roy-21" value="" style="group" parent="1" vertex="1" connectable="0">
          <mxGeometry x="430" y="830" width="92" height="90" as="geometry" />
        </mxCell>
        <mxCell id="g8Dbcb_rT2XGJNLQ8Roy-22" value="&lt;div&gt;&lt;br&gt;&lt;/div&gt;Выделение мощностей" style="ellipse;whiteSpace=wrap;html=1;aspect=fixed;" parent="g8Dbcb_rT2XGJNLQ8Roy-21" vertex="1">
          <mxGeometry width="90" height="90" as="geometry" />
        </mxCell>
        <mxCell id="g8Dbcb_rT2XGJNLQ8Roy-23" value="" style="rounded=0;whiteSpace=wrap;html=1;fillColor=#000000;" parent="g8Dbcb_rT2XGJNLQ8Roy-21" vertex="1">
          <mxGeometry x="36.06818181818181" y="9" width="19.863636363636367" height="18.40909090909091" as="geometry" />
        </mxCell>
        <mxCell id="g8Dbcb_rT2XGJNLQ8Roy-24" value="" style="group" parent="1" vertex="1" connectable="0">
          <mxGeometry x="600.5" y="910" width="80" height="80" as="geometry" />
        </mxCell>
        <mxCell id="g8Dbcb_rT2XGJNLQ8Roy-25" value="Мощность настроена" style="ellipse;whiteSpace=wrap;html=1;aspect=fixed;" parent="g8Dbcb_rT2XGJNLQ8Roy-24" vertex="1">
          <mxGeometry width="80" height="80" as="geometry" />
        </mxCell>
        <mxCell id="g8Dbcb_rT2XGJNLQ8Roy-26" style="edgeStyle=orthogonalEdgeStyle;rounded=0;orthogonalLoop=1;jettySize=auto;html=1;entryX=0.5;entryY=0;entryDx=0;entryDy=0;" parent="1" source="QOVAfa2Nv-o42hQcaNNP-46" target="g8Dbcb_rT2XGJNLQ8Roy-18" edge="1">
          <mxGeometry relative="1" as="geometry" />
        </mxCell>
        <mxCell id="g8Dbcb_rT2XGJNLQ8Roy-27" style="edgeStyle=orthogonalEdgeStyle;rounded=0;orthogonalLoop=1;jettySize=auto;html=1;exitX=0;exitY=0.5;exitDx=0;exitDy=0;entryX=0.5;entryY=0;entryDx=0;entryDy=0;" parent="1" source="QOVAfa2Nv-o42hQcaNNP-46" target="g8Dbcb_rT2XGJNLQ8Roy-19" edge="1">
          <mxGeometry relative="1" as="geometry" />
        </mxCell>
        <mxCell id="g8Dbcb_rT2XGJNLQ8Roy-30" style="edgeStyle=orthogonalEdgeStyle;rounded=0;orthogonalLoop=1;jettySize=auto;html=1;entryX=0.5;entryY=0;entryDx=0;entryDy=0;" parent="1" source="g8Dbcb_rT2XGJNLQ8Roy-22" target="g8Dbcb_rT2XGJNLQ8Roy-25" edge="1">
          <mxGeometry relative="1" as="geometry">
            <mxPoint x="650" y="875" as="targetPoint" />
          </mxGeometry>
        </mxCell>
        <mxCell id="g8Dbcb_rT2XGJNLQ8Roy-34" style="edgeStyle=orthogonalEdgeStyle;rounded=0;orthogonalLoop=1;jettySize=auto;html=1;entryX=0.5;entryY=0;entryDx=0;entryDy=0;" parent="1" source="g8Dbcb_rT2XGJNLQ8Roy-31" target="QOVAfa2Nv-o42hQcaNNP-54" edge="1">
          <mxGeometry relative="1" as="geometry" />
        </mxCell>
        <mxCell id="g8Dbcb_rT2XGJNLQ8Roy-31" value="" style="rounded=1;whiteSpace=wrap;html=1;fillColor=#000000;" parent="1" vertex="1">
          <mxGeometry x="483.69" y="1020" width="150" height="10" as="geometry" />
        </mxCell>
        <mxCell id="g8Dbcb_rT2XGJNLQ8Roy-32" style="edgeStyle=orthogonalEdgeStyle;rounded=0;orthogonalLoop=1;jettySize=auto;html=1;entryX=0.5;entryY=0;entryDx=0;entryDy=0;" parent="1" source="g8Dbcb_rT2XGJNLQ8Roy-25" target="g8Dbcb_rT2XGJNLQ8Roy-31" edge="1">
          <mxGeometry relative="1" as="geometry">
            <Array as="points">
              <mxPoint x="641" y="1000" />
              <mxPoint x="559" y="1000" />
            </Array>
          </mxGeometry>
        </mxCell>
        <mxCell id="g8Dbcb_rT2XGJNLQ8Roy-35" style="edgeStyle=orthogonalEdgeStyle;rounded=0;orthogonalLoop=1;jettySize=auto;html=1;exitX=0;exitY=0.5;exitDx=0;exitDy=0;entryX=1;entryY=0.5;entryDx=0;entryDy=0;" parent="1" source="QOVAfa2Nv-o42hQcaNNP-54" target="QOVAfa2Nv-o42hQcaNNP-77" edge="1">
          <mxGeometry relative="1" as="geometry" />
        </mxCell>
        <mxCell id="g8Dbcb_rT2XGJNLQ8Roy-50" style="edgeStyle=orthogonalEdgeStyle;rounded=0;orthogonalLoop=1;jettySize=auto;html=1;exitX=0.5;exitY=1;exitDx=0;exitDy=0;entryX=0.5;entryY=0;entryDx=0;entryDy=0;" parent="1" source="g8Dbcb_rT2XGJNLQ8Roy-36" target="QOVAfa2Nv-o42hQcaNNP-159" edge="1">
          <mxGeometry relative="1" as="geometry" />
        </mxCell>
        <mxCell id="g8Dbcb_rT2XGJNLQ8Roy-36" value="p2" style="ellipse;whiteSpace=wrap;html=1;aspect=fixed;" parent="1" vertex="1">
          <mxGeometry x="712" y="1439" width="44" height="44" as="geometry" />
        </mxCell>
        <mxCell id="g8Dbcb_rT2XGJNLQ8Roy-45" style="edgeStyle=orthogonalEdgeStyle;rounded=0;orthogonalLoop=1;jettySize=auto;html=1;exitX=0.5;exitY=1;exitDx=0;exitDy=0;entryX=0.5;entryY=0;entryDx=0;entryDy=0;" parent="1" source="g8Dbcb_rT2XGJNLQ8Roy-38" target="QOVAfa2Nv-o42hQcaNNP-260" edge="1">
          <mxGeometry relative="1" as="geometry" />
        </mxCell>
        <mxCell id="g8Dbcb_rT2XGJNLQ8Roy-38" value="p6" style="ellipse;whiteSpace=wrap;html=1;aspect=fixed;" parent="1" vertex="1">
          <mxGeometry x="650" y="1850" width="50" height="50" as="geometry" />
        </mxCell>
        <mxCell id="g8Dbcb_rT2XGJNLQ8Roy-40" style="edgeStyle=orthogonalEdgeStyle;rounded=0;orthogonalLoop=1;jettySize=auto;html=1;exitX=0;exitY=0.5;exitDx=0;exitDy=0;entryX=1;entryY=0.5;entryDx=0;entryDy=0;" parent="1" source="QOVAfa2Nv-o42hQcaNNP-252" target="QOVAfa2Nv-o42hQcaNNP-268" edge="1">
          <mxGeometry relative="1" as="geometry" />
        </mxCell>
        <mxCell id="g8Dbcb_rT2XGJNLQ8Roy-41" style="edgeStyle=orthogonalEdgeStyle;rounded=0;orthogonalLoop=1;jettySize=auto;html=1;exitX=0;exitY=0.5;exitDx=0;exitDy=0;entryX=0.5;entryY=0;entryDx=0;entryDy=0;" parent="1" source="QOVAfa2Nv-o42hQcaNNP-165" target="QOVAfa2Nv-o42hQcaNNP-250" edge="1">
          <mxGeometry relative="1" as="geometry" />
        </mxCell>
        <mxCell id="g8Dbcb_rT2XGJNLQ8Roy-42" style="edgeStyle=orthogonalEdgeStyle;rounded=0;orthogonalLoop=1;jettySize=auto;html=1;exitX=0;exitY=0.5;exitDx=0;exitDy=0;entryX=0.5;entryY=0;entryDx=0;entryDy=0;" parent="1" source="QOVAfa2Nv-o42hQcaNNP-165" target="QOVAfa2Nv-o42hQcaNNP-257" edge="1">
          <mxGeometry relative="1" as="geometry" />
        </mxCell>
        <mxCell id="g8Dbcb_rT2XGJNLQ8Roy-44" style="edgeStyle=orthogonalEdgeStyle;rounded=0;orthogonalLoop=1;jettySize=auto;html=1;exitX=1;exitY=0.5;exitDx=0;exitDy=0;entryX=0.5;entryY=0;entryDx=0;entryDy=0;" parent="1" source="QOVAfa2Nv-o42hQcaNNP-255" target="g8Dbcb_rT2XGJNLQ8Roy-38" edge="1">
          <mxGeometry relative="1" as="geometry" />
        </mxCell>
        <mxCell id="g8Dbcb_rT2XGJNLQ8Roy-47" style="edgeStyle=orthogonalEdgeStyle;rounded=0;orthogonalLoop=1;jettySize=auto;html=1;entryX=0.5;entryY=0;entryDx=0;entryDy=0;" parent="1" source="QOVAfa2Nv-o42hQcaNNP-210" target="QOVAfa2Nv-o42hQcaNNP-178" edge="1">
          <mxGeometry relative="1" as="geometry" />
        </mxCell>
        <mxCell id="g8Dbcb_rT2XGJNLQ8Roy-49" style="edgeStyle=orthogonalEdgeStyle;rounded=0;orthogonalLoop=1;jettySize=auto;html=1;exitX=0;exitY=0.5;exitDx=0;exitDy=0;entryX=0.5;entryY=0;entryDx=0;entryDy=0;" parent="1" source="QOVAfa2Nv-o42hQcaNNP-159" target="QOVAfa2Nv-o42hQcaNNP-157" edge="1">
          <mxGeometry relative="1" as="geometry" />
        </mxCell>
        <mxCell id="g8Dbcb_rT2XGJNLQ8Roy-51" style="edgeStyle=orthogonalEdgeStyle;rounded=0;orthogonalLoop=1;jettySize=auto;html=1;exitX=0.5;exitY=1;exitDx=0;exitDy=0;entryX=0.5;entryY=0;entryDx=0;entryDy=0;" parent="1" source="QOVAfa2Nv-o42hQcaNNP-152" target="g8Dbcb_rT2XGJNLQ8Roy-36" edge="1">
          <mxGeometry relative="1" as="geometry" />
        </mxCell>
      </root>
    </mxGraphModel>
  </diagram>
</mxfile>
